
<global>
ampeg_release=1.5
</global>

<group>
group_label=Group

<region>
hivel=127
key=A#3
lovel=87
offset=513
sample=Vibraphone_SoftMallets_Sustain_F_A#3.opus
</region>

<region>
hivel=127
key=A#4
lovel=87
offset=499
sample=Vibraphone_SoftMallets_Sustain_F_A#4.opus
</region>

<region>
hivel=127
key=A#5
lovel=87
offset=4394
sample=Vibraphone_SoftMallets_Sustain_F_A#5.opus
</region>

<region>
hivel=127
key=A3
lovel=87
offset=474
sample=Vibraphone_SoftMallets_Sustain_F_A3.opus
</region>

<region>
hivel=127
key=A4
lovel=87
offset=516
sample=Vibraphone_SoftMallets_Sustain_F_A4.opus
</region>

<region>
hivel=127
key=A5
lovel=87
offset=1791
sample=Vibraphone_SoftMallets_Sustain_F_A5.opus
</region>

<region>
hivel=127
key=B3
lovel=87
offset=555
sample=Vibraphone_SoftMallets_Sustain_F_B3.opus
</region>

<region>
hivel=127
key=B4
lovel=87
offset=596
sample=Vibraphone_SoftMallets_Sustain_F_B4.opus
</region>

<region>
hivel=127
key=B5
lovel=87
offset=554
sample=Vibraphone_SoftMallets_Sustain_F_B5.opus
</region>

<region>
hivel=127
key=C#4
lovel=87
offset=504
sample=Vibraphone_SoftMallets_Sustain_F_C#4.opus
</region>

<region>
hivel=127
key=C#5
lovel=87
offset=544
sample=Vibraphone_SoftMallets_Sustain_F_C#5.opus
</region>

<region>
hivel=127
key=C#6
lovel=87
offset=3898
sample=Vibraphone_SoftMallets_Sustain_F_C#6.opus
</region>

<region>
hikey=C4
hivel=127
lokey=C4
lovel=87
offset=511
sample=Vibraphone_SoftMallets_Sustain_F_C4.opus
</region>

<region>
hivel=127
key=C5
lovel=87
offset=677
sample=Vibraphone_SoftMallets_Sustain_F_C5.opus
</region>

<region>
hivel=127
key=C6
lovel=87
offset=1739
sample=Vibraphone_SoftMallets_Sustain_F_C6.opus
</region>

<region>
hivel=127
key=D#4
lovel=87
offset=538
sample=Vibraphone_SoftMallets_Sustain_F_D#4.opus
</region>

<region>
hivel=127
key=D#5
lovel=87
offset=509
sample=Vibraphone_SoftMallets_Sustain_F_D#5.opus
</region>

<region>
hivel=127
key=D#6
lovel=87
offset=3233
sample=Vibraphone_SoftMallets_Sustain_F_D#6.opus
</region>

<region>
hivel=127
key=D4
lovel=87
offset=520
sample=Vibraphone_SoftMallets_Sustain_F_D4.opus
</region>

<region>
hivel=127
key=D5
lovel=87
offset=498
sample=Vibraphone_SoftMallets_Sustain_F_D5.opus
</region>

<region>
hivel=127
key=D6
lovel=87
offset=477
sample=Vibraphone_SoftMallets_Sustain_F_D6.opus
</region>

<region>
hivel=127
key=E4
lovel=87
offset=499
sample=Vibraphone_SoftMallets_Sustain_F_E4.opus
</region>

<region>
hivel=127
key=E5
lovel=87
offset=4399
sample=Vibraphone_SoftMallets_Sustain_F_E5.opus
</region>

<region>
hivel=127
key=E6
lovel=87
offset=477
sample=Vibraphone_SoftMallets_Sustain_F_E6.opus
</region>

<region>
hivel=127
key=F#3
lovel=87
offset=500
sample=Vibraphone_SoftMallets_Sustain_F_F#3.opus
</region>

<region>
hivel=127
key=F#4
lovel=87
offset=1645
sample=Vibraphone_SoftMallets_Sustain_F_F#4.opus
</region>

<region>
hivel=127
key=F#5
lovel=87
offset=564
sample=Vibraphone_SoftMallets_Sustain_F_F#5.opus
</region>

<region>
hivel=127
key=F3
lovel=87
sample=Vibraphone_SoftMallets_Sustain_F_F3.opus
</region>

<region>
hivel=127
key=F4
lovel=87
offset=512
sample=Vibraphone_SoftMallets_Sustain_F_F4.opus
</region>

<region>
hivel=127
key=F5
lovel=87
offset=500
sample=Vibraphone_SoftMallets_Sustain_F_F5.opus
</region>

<region>
hivel=127
key=F6
lovel=87
offset=499
sample=Vibraphone_SoftMallets_Sustain_F_F6.opus
</region>

<region>
hivel=127
key=G#3
lovel=87
offset=510
sample=Vibraphone_SoftMallets_Sustain_F_G#3.opus
</region>

<region>
hivel=127
key=G#4
lovel=87
offset=840
sample=Vibraphone_SoftMallets_Sustain_F_G#4.opus
</region>

<region>
hivel=127
key=G#5
lovel=87
offset=4448
sample=Vibraphone_SoftMallets_Sustain_F_G#5.opus
</region>

<region>
hivel=127
key=G3
lovel=87
offset=512
sample=Vibraphone_SoftMallets_Sustain_F_G3.opus
</region>

<region>
hivel=127
key=G4
lovel=87
offset=502
sample=Vibraphone_SoftMallets_Sustain_F_G4.opus
</region>

<region>
hivel=127
key=G5
lovel=87
offset=998
sample=Vibraphone_SoftMallets_Sustain_F_G5.opus
</region>

<region>
hivel=86
key=A#3
lovel=25
offset=5975
sample=Vibraphone_SoftMallets_Sustain_MF_A#3.opus
</region>

<region>
hivel=86
key=A#4
lovel=25
offset=5705
sample=Vibraphone_SoftMallets_Sustain_MF_A#4.opus
</region>

<region>
hivel=86
key=A#5
lovel=25
offset=558
sample=Vibraphone_SoftMallets_Sustain_MF_A#5.opus
</region>

<region>
hivel=86
key=A3
lovel=25
offset=524
sample=Vibraphone_SoftMallets_Sustain_MF_A3.opus
</region>

<region>
hivel=86
key=A4
lovel=25
offset=613
sample=Vibraphone_SoftMallets_Sustain_MF_A4.opus
</region>

<region>
hivel=86
key=A5
lovel=25
offset=4501
sample=Vibraphone_SoftMallets_Sustain_MF_A5.opus
</region>

<region>
hivel=86
key=B3
lovel=25
offset=4687
sample=Vibraphone_SoftMallets_Sustain_MF_B3.opus
</region>

<region>
hivel=86
key=B4
lovel=25
offset=2194
sample=Vibraphone_SoftMallets_Sustain_MF_B4.opus
</region>

<region>
hivel=86
key=B5
lovel=25
offset=485
sample=Vibraphone_SoftMallets_Sustain_MF_B5.opus
</region>

<region>
hivel=86
key=C#4
lovel=25
offset=518
sample=Vibraphone_SoftMallets_Sustain_MF_C#4.opus
</region>

<region>
hivel=86
key=C#5
lovel=25
offset=4790
sample=Vibraphone_SoftMallets_Sustain_MF_C#5.opus
</region>

<region>
hivel=86
key=C#6
lovel=25
offset=3700
sample=Vibraphone_SoftMallets_Sustain_MF_C#6.opus
</region>

<region>
hikey=C4
hivel=86
lokey=C4
lovel=25
offset=475
sample=Vibraphone_SoftMallets_Sustain_MF_C4.opus
</region>

<region>
hivel=86
key=C5
lovel=25
offset=5007
sample=Vibraphone_SoftMallets_Sustain_MF_C5.opus
</region>

<region>
hivel=86
key=C6
lovel=25
offset=5776
sample=Vibraphone_SoftMallets_Sustain_MF_C6.opus
</region>

<region>
hivel=86
key=D#4
lovel=25
offset=3314
sample=Vibraphone_SoftMallets_Sustain_MF_D#4.opus
</region>

<region>
hivel=86
key=D#5
lovel=25
offset=584
sample=Vibraphone_SoftMallets_Sustain_MF_D#5.opus
</region>

<region>
hivel=86
key=D#6
lovel=25
offset=4504
sample=Vibraphone_SoftMallets_Sustain_MF_D#6.opus
</region>

<region>
hivel=86
key=D4
lovel=25
offset=2349
sample=Vibraphone_SoftMallets_Sustain_MF_D4.opus
</region>

<region>
hivel=86
key=D5
lovel=25
offset=585
sample=Vibraphone_SoftMallets_Sustain_MF_D5.opus
</region>

<region>
hivel=86
key=D6
lovel=25
offset=5086
sample=Vibraphone_SoftMallets_Sustain_MF_D6.opus
</region>

<region>
hivel=86
key=E4
lovel=25
offset=4751
sample=Vibraphone_SoftMallets_Sustain_MF_E4.opus
</region>

<region>
hivel=86
key=E5
lovel=25
offset=3783
sample=Vibraphone_SoftMallets_Sustain_MF_E5.opus
</region>

<region>
hivel=86
key=E6
lovel=25
offset=7224
sample=Vibraphone_SoftMallets_Sustain_MF_E6.opus
</region>

<region>
hivel=86
key=F#3
lovel=25
offset=519
sample=Vibraphone_SoftMallets_Sustain_MF_F#3.opus
</region>

<region>
hivel=86
key=F#4
lovel=25
offset=1531
sample=Vibraphone_SoftMallets_Sustain_MF_F#4.opus
</region>

<region>
hivel=86
key=F#5
lovel=25
offset=587
sample=Vibraphone_SoftMallets_Sustain_MF_F#5.opus
</region>

<region>
hivel=86
key=F3
lovel=25
offset=516
sample=Vibraphone_SoftMallets_Sustain_MF_F3.opus
</region>

<region>
hivel=86
key=F4
lovel=25
offset=6200
sample=Vibraphone_SoftMallets_Sustain_MF_F4.opus
</region>

<region>
hivel=86
key=F5
lovel=25
offset=2478
sample=Vibraphone_SoftMallets_Sustain_MF_F5.opus
</region>

<region>
hivel=86
key=F6
lovel=25
offset=5257
sample=Vibraphone_SoftMallets_Sustain_MF_F6.opus
</region>

<region>
hivel=86
key=G#3
lovel=25
offset=5126
sample=Vibraphone_SoftMallets_Sustain_MF_G#3.opus
</region>

<region>
hivel=86
key=G#4
lovel=25
offset=4287
sample=Vibraphone_SoftMallets_Sustain_MF_G#4.opus
</region>

<region>
hivel=86
key=G#5
lovel=25
offset=560
sample=Vibraphone_SoftMallets_Sustain_MF_G#5.opus
</region>

<region>
hivel=86
key=G3
lovel=25
offset=5025
sample=Vibraphone_SoftMallets_Sustain_MF_G3.opus
</region>

<region>
hivel=86
key=G4
lovel=25
offset=761
sample=Vibraphone_SoftMallets_Sustain_MF_G4.opus
</region>

<region>
hivel=86
key=G5
lovel=25
offset=3752
sample=Vibraphone_SoftMallets_Sustain_MF_G5.opus
</region>

<region>
hivel=24
key=A#3
lovel=0
offset=3037
sample=Vibraphone_SoftMallets_Sustain_P_A#3.opus
volume=20
</region>

<region>
hivel=24
key=A#4
lovel=0
offset=5722
sample=Vibraphone_SoftMallets_Sustain_P_A#4.opus
volume=20
</region>

<region>
hivel=24
key=A#5
lovel=0
offset=4291
sample=Vibraphone_SoftMallets_Sustain_P_A#5.opus
volume=20
</region>

<region>
hivel=24
key=A3
lovel=0
offset=7431
sample=Vibraphone_SoftMallets_Sustain_P_A3.opus
volume=20
</region>

<region>
hivel=24
key=A4
lovel=0
offset=4109
sample=Vibraphone_SoftMallets_Sustain_P_A4.opus
volume=20
</region>

<region>
hivel=24
key=A5
lovel=0
offset=3755
sample=Vibraphone_SoftMallets_Sustain_P_A5.opus
volume=20
</region>

<region>
hivel=24
key=B3
lovel=0
offset=4050
sample=Vibraphone_SoftMallets_Sustain_P_B3.opus
volume=20
</region>

<region>
hivel=24
key=B4
lovel=0
offset=3414
sample=Vibraphone_SoftMallets_Sustain_P_B4.opus
volume=20
</region>

<region>
hivel=24
key=B5
lovel=0
offset=6193
sample=Vibraphone_SoftMallets_Sustain_P_B5.opus
volume=20
</region>

<region>
hivel=24
key=C#4
lovel=0
offset=3597
sample=Vibraphone_SoftMallets_Sustain_P_C#4.opus
volume=20
</region>

<region>
hivel=24
key=C#5
lovel=0
offset=5312
sample=Vibraphone_SoftMallets_Sustain_P_C#5.opus
volume=20
</region>

<region>
hivel=24
key=C#6
lovel=0
offset=6186
sample=Vibraphone_SoftMallets_Sustain_P_C#6.opus
volume=20
</region>

<region>
hikey=C4
hivel=24
lokey=C4
lovel=0
offset=7068
sample=Vibraphone_SoftMallets_Sustain_P_C4.opus
volume=20
</region>

<region>
hivel=24
key=C5
lovel=0
offset=6223
sample=Vibraphone_SoftMallets_Sustain_P_C5.opus
volume=20
</region>

<region>
hivel=24
key=C6
lovel=0
offset=5262
sample=Vibraphone_SoftMallets_Sustain_P_C6.opus
volume=20
</region>

<region>
hivel=24
key=D#4
lovel=0
offset=5631
sample=Vibraphone_SoftMallets_Sustain_P_D#4.opus
volume=20
</region>

<region>
hivel=24
key=D#5
lovel=0
offset=4918
sample=Vibraphone_SoftMallets_Sustain_P_D#5.opus
volume=20
</region>

<region>
hivel=24
key=D#6
lovel=0
offset=5246
sample=Vibraphone_SoftMallets_Sustain_P_D#6.opus
volume=20
</region>

<region>
hivel=24
key=D4
lovel=0
offset=5729
sample=Vibraphone_SoftMallets_Sustain_P_D4.opus
volume=20
</region>

<region>
hivel=24
key=D5
lovel=0
offset=5395
sample=Vibraphone_SoftMallets_Sustain_P_D5.opus
volume=20
</region>

<region>
hivel=24
key=D6
lovel=0
offset=5178
sample=Vibraphone_SoftMallets_Sustain_P_D6.opus
volume=20
</region>

<region>
hivel=24
key=E4
lovel=0
offset=5994
sample=Vibraphone_SoftMallets_Sustain_P_E4.opus
volume=20
</region>

<region>
hivel=24
key=E5
lovel=0
offset=4279
sample=Vibraphone_SoftMallets_Sustain_P_E5.opus
volume=20
</region>

<region>
hivel=24
key=E6
lovel=0
offset=5215
sample=Vibraphone_SoftMallets_Sustain_P_E6.opus
volume=20
</region>

<region>
hivel=24
key=F#3
lovel=0
offset=5168
sample=Vibraphone_SoftMallets_Sustain_P_F#3.opus
volume=20
</region>

<region>
hivel=24
key=F#4
lovel=0
offset=4923
sample=Vibraphone_SoftMallets_Sustain_P_F#4.opus
volume=20
</region>

<region>
hivel=24
key=F#5
lovel=0
offset=3711
sample=Vibraphone_SoftMallets_Sustain_P_F#5.opus
volume=20
</region>

<region>
hivel=24
key=F3
lovel=0
offset=2572
sample=Vibraphone_SoftMallets_Sustain_P_F3.opus
volume=20
</region>

<region>
hivel=24
key=F4
lovel=0
offset=3014
sample=Vibraphone_SoftMallets_Sustain_P_F4.opus
volume=20
</region>

<region>
hivel=24
key=F5
lovel=0
offset=3971
sample=Vibraphone_SoftMallets_Sustain_P_F5.opus
volume=20
</region>

<region>
hivel=24
key=F6
lovel=0
offset=3987
sample=Vibraphone_SoftMallets_Sustain_P_F6.opus
volume=20
</region>

<region>
hivel=24
key=G#3
lovel=0
offset=3364
sample=Vibraphone_SoftMallets_Sustain_P_G#3.opus
volume=20
</region>

<region>
hivel=24
key=G#4
lovel=0
offset=4522
sample=Vibraphone_SoftMallets_Sustain_P_G#4.opus
volume=20
</region>

<region>
hivel=24
key=G#5
lovel=0
offset=5609
sample=Vibraphone_SoftMallets_Sustain_P_G#5.opus
volume=20
</region>

<region>
hivel=24
key=G3
lovel=0
offset=7919
sample=Vibraphone_SoftMallets_Sustain_P_G3.opus
volume=20
</region>

<region>
hivel=24
key=G4
lovel=0
offset=5438
sample=Vibraphone_SoftMallets_Sustain_P_G4.opus
volume=20
</region>

<region>
hivel=24
key=G5
lovel=0
offset=4267
sample=Vibraphone_SoftMallets_Sustain_P_G5.opus
volume=20
</region>
</group>
